<svg xmlns="http://www.w3.org/2000/svg" xmlns:xlink="http://www.w3.org/1999/xlink" width="550.224" height="423.291" viewBox="0 0 550.224 423.291">
  <defs>
    <linearGradient id="linear-gradient" x1="0.498" y1="0.997" x2="0.505" y2="0.1" gradientUnits="objectBoundingBox">
      <stop offset="0" stop-color="#030d14"/>
      <stop offset="1" stop-color="#0b2f45"/>
    </linearGradient>
    <radialGradient id="radial-gradient" cx="0.5" cy="0.5" r="0.495" gradientUnits="objectBoundingBox">
      <stop offset="0.13" stop-color="#3280fc"/>
      <stop offset="1"/>
    </radialGradient>
    <linearGradient id="linear-gradient-2" x1="0" y1="0.5" x2="1" y2="0.5" xlink:href="#linear-gradient"/>
    <linearGradient id="linear-gradient-4" x1="0.278" y1="1.126" x2="1.21" y2="-2.092" gradientUnits="objectBoundingBox">
      <stop offset="0.04" stop-color="#06cff1"/>
      <stop offset="1" stop-color="#defa8e"/>
    </linearGradient>
    <radialGradient id="radial-gradient-3" cx="0.5" cy="0.5" r="1.221" gradientTransform="translate(0.295 0.295) scale(0.409 0.409)" gradientUnits="objectBoundingBox">
      <stop offset="0" stop-color="#bcd7d6" stop-opacity="0.031"/>
      <stop offset="1" stop-color="#fff" stop-opacity="0.031"/>
    </radialGradient>
  </defs>
  <g id="Group_23" data-name="Group 23" transform="translate(-255.536 -24)">
    <ellipse id="Ellipse_2" data-name="Ellipse 2" cx="2.384" cy="1.083" rx="2.384" ry="1.083" transform="translate(500.979 29.98)" fill="#fff"/>
    <path id="Path_6" data-name="Path 6" d="M155.14,167.023s-1.9-17.2-.955-17.668S155.578,158.281,155.14,167.023Z" transform="translate(407.967 -93.296)" fill="#fff"/>
    <path id="Path_7" data-name="Path 7" d="M92.908,166.88c-.462-2.608-3.439-5.536-5.3-5.078s2.2,1.868,3.658,3.126S92.908,166.88,92.908,166.88Z" transform="translate(407.967 -93.296)" fill="#fff"/>
    <circle id="Ellipse_3" data-name="Ellipse 3" cx="1.255" cy="1.255" r="1.255" transform="translate(583.14 65.913)" fill="#fff"/>
    <ellipse id="Ellipse_4" data-name="Ellipse 4" cx="0.375" cy="5.563" rx="0.375" ry="5.563" transform="matrix(0.998, -0.056, 0.056, 0.998, 458.533, 60.853)" fill="#fff"/>
    <g id="Scene_Whiteboard" data-name="Scene/Whiteboard" transform="translate(255.536 24)">
      <g id="Big_Cards" data-name="Big Cards" transform="translate(157.464 -17.057)" opacity="0.5">
        <path id="Fill_69" data-name="Fill 69" d="M.073,2.3c0,2.788-.438,6.9.848,9.528,1.631,3.33,3.67,2.289,4.211-.84.309-1.793.3-7.1-.274-8.688C4.042.048.073-1.484.073,2.3" transform="translate(117.414 17.057)" fill="#89c5cc"/>
        <path id="Fill_71" data-name="Fill 71" d="M12.93.02C10.312.112,2.689-.516.918,1.589-2.12,5.2,3.168,5.838,5.439,5.636c2.628-.234,10.748.337,12.508-1.77C20.891.34,14.988-.055,12.93.02" transform="translate(109.236 20.409)" fill="#89c5cc"/>
        <path id="Fill_75" data-name="Fill 75" d="M46.786.024c-2.865.238-5.341,2.244-8.224,2.6-2.7.332-4.93-.59-7.454-1.328A16.284,16.284,0,0,0,22.141.8c-2.383.605-4.733,2.226-7.207,2.422C10.064,3.61,4.4-1.946.6,4.338c-1.823,3.013.824,4.953,3.55,3.548C6.994,6.422,5.6,5.9,9.124,6.763c2.942.721,5.319,1.113,8.266.1C20.059,5.95,22.4,4.274,25.3,4.086c2.84-.184,5.312,1.11,8.027,1.668a17.592,17.592,0,0,0,9.457-.88c3.009-1,4.21-1.54,7.246-.652,1.923.562,6.123,2.349,7.995.909,3.236-2.489-1.1-2.853-2.8-3.207-2.747-.569-5.589-2.134-8.44-1.9" transform="translate(39.03 115.608)" fill="#89c5cc"/>
        <path id="Fill_77" data-name="Fill 77" d="M10.989,20.427h0A10.524,10.524,0,0,1,3.536,17.41,11.664,11.664,0,0,1,.1,10.643,9.4,9.4,0,0,1,1.346,4.322,10.129,10.129,0,0,1,7.427.068,2.153,2.153,0,0,1,8,0C9.8,0,13.141,1.558,14.5,2.43a10.927,10.927,0,0,1,4.343,5.163,10.684,10.684,0,0,1-.559,8.925A7.329,7.329,0,0,1,13,20.255,12.147,12.147,0,0,1,10.989,20.427ZM8.014,6.3a2.889,2.889,0,0,0-2.27,3.37A6.057,6.057,0,0,0,7.619,12.93a5.174,5.174,0,0,0,3.39,1.535c.064,0,.119,0,.167,0,1.648-.08,2.562-.841,2.573-2.144a6.2,6.2,0,0,0-1.811-3.824A6.2,6.2,0,0,0,8.014,6.3Z" transform="translate(140.558 107.068)" fill="#89c5cc"/>
        <path id="Image_X" data-name="Image X" d="M2.424,49.072C1.065,49.041.149,48.75.007,47.1-.174,45,3.219,44.132,4.59,43.446q7.05-3.525,14.172-6.9c9.419-4.493,18.927-8.807,28.469-13.034l.165-.073q-7.938-2.686-15.917-5.25c-3.039-.978-24.35-6.237-23.573-9.06.873-3.164,19.747,4.3,22.65,5.222q10.72,3.416,21.364,7.068C68.935,13.77,86.13,5.626,103.876.064c1.118-.349,1.824.8,1.57,1.769-.339,1.294-4.32,2.342-5.425,2.835-4.37,1.952-8.763,3.856-13.135,5.809-9.521,4.255-19.061,8.47-28.581,12.727l-.56.251q10.041,3.569,19.977,7.425c3.546,1.37,7.073,2.784,10.611,4.173,1.772.7,9.141,2.443,9.565,4.212.6,2.5-7.257-.571-8.507-.97-3.53-1.129-7.016-2.391-10.5-3.648-7.8-2.81-15.567-5.709-23.4-8.434l-2.2-.762q-12.469,5.6-24.876,11.332-6.65,3.081-13.241,6.284c-3.233,1.566-9.06,6.007-12.659,6.007Z" transform="translate(28.297 164.156)" fill="#89c5cc"/>
        <path id="Fill_117" data-name="Fill 117" d="M13.02,24.6a12.628,12.628,0,0,1-8-2.546,8.491,8.491,0,0,1-2.858-4.181,9.585,9.585,0,0,1-.2-3.953,2.615,2.615,0,0,1-.384.03,1.734,1.734,0,0,1-1.56-.9c-.3-3.7,3.089-6.936,5.135-8.536A21.969,21.969,0,0,1,14.643.077,9.669,9.669,0,0,1,15.85,0a10.514,10.514,0,0,1,7.614,3.472,12.619,12.619,0,0,1,3.5,9.141A11.989,11.989,0,0,1,23.3,20.789a14.071,14.071,0,0,1-8.24,3.7A17.877,17.877,0,0,1,13.02,24.6ZM15.936,3.9a1.908,1.908,0,0,0-2.076,1.146,3.3,3.3,0,0,1-1.569,1.534,2.693,2.693,0,0,1-1.14.156,3.189,3.189,0,0,0-1.407.215A6.959,6.959,0,0,0,7.183,9.869l-.064.108c-1.633,2.74-1.987,5.529-.972,7.649.9,1.887,2.788,3.083,5.451,3.46a13.053,13.053,0,0,0,1.826.129c4.467,0,9.547-2.494,10.145-7.971a8.616,8.616,0,0,0-6.943-9.31C16.375,3.913,16.143,3.9,15.936,3.9Z" transform="translate(6.483 237.199)" fill="#89c5cc"/>
        <path id="Fill_119" data-name="Fill 119" d="M8.116.977C5.733,2.24,1.964,4.18.567,6.578c-1.476,2.533.052,5.3,3.162,4.106C6.2,9.733,7.768,6.71,10.4,5.741c2.324-.855,3.261-.419,5.717.432C18.65,7.05,20.862,7.9,23.6,7.683c3.439-.27,6.417-2.264,9.783-2.718,2.834-.382,5.171.721,7.885,1.159,3.149.509,5.208-.683,8.154-1.3,2-.422,5.536,1.3,7,.653,3.287-1.445-.19-3.212-2.01-3.8-3.065-.983-4.951-.115-7.866.7-3.165.885-4.532.22-7.558-.593C32.863.14,28.135,4.117,22.333,3.394,16.961,2.724,13.747-2,8.116.977" transform="translate(38.73 244.298)" fill="#89c5cc"/>
        <path id="Fill_121" data-name="Fill 121" d="M10.238,18.821h0A11.474,11.474,0,0,1,1.871,15.6,6.969,6.969,0,0,1,.026,10.112a9.294,9.294,0,0,1,3.72-6.955A17.734,17.734,0,0,1,11.221.163,8.652,8.652,0,0,1,12.857,0a6.319,6.319,0,0,1,5.134,2.48A9.8,9.8,0,0,1,19.9,8.144a11.41,11.41,0,0,1-1.985,6.968,8.761,8.761,0,0,1-6.676,3.67C10.91,18.808,10.573,18.821,10.238,18.821Zm2.54-14.212c-2.482,0-5.652.836-7.14,2.7A4.876,4.876,0,0,0,4.417,11,3.849,3.849,0,0,0,6.182,13.6a6.892,6.892,0,0,0,3.9,1.293,5.583,5.583,0,0,0,5.232-3.529c.893-2.258.18-4.775-1.907-6.733C13.2,4.615,12.993,4.609,12.778,4.609Z" transform="translate(133.53 237.709)" fill="#89c5cc"/>
      </g>
      <path id="Fill_79" data-name="Fill 79" d="M17.139.006C12.736.091,1.863,1.692.247,6.9-.98,10.854,2.665,9.986,4.618,8.548a18.472,18.472,0,0,1,8.235-3.7C25.326,2.59,37.311,10.681,49.665,11.7c4.68.388,10.327.64,14.795-.875,3.182-1.079,3.6-3.432-.034-3.791-3.085-.3-6.5.655-9.662.628C41.675,7.554,30.04-.24,17.139.006" transform="translate(415.464 14.943)" fill="#c1dee2" opacity="0.5"/>
      <g id="Cards" transform="translate(-0.536 145.943)" opacity="0.5">
        <path id="Fill_173" data-name="Fill 173" d="M53.307.032Q40.671.174,28.055.969c-8,.507-16.67.122-24.536,1.672-2.233.44-5.25,2.475-2.281,4.714,2.087,1.574,9.724-.237,12.216-.39C22.634,6.4,31.818,5.726,41.01,5.4c8.7-.308,17.4-.416,26.11-.5,1.329-.013,3.536-.439,4.859-.053,1.9.555,1.451.706,1.593,3.12.258,4.374.187,8.764.1,13.142-.084,4.237-.241,8.473-.225,12.712.011,3.024-.956,9.033.561,11.66,2.184,3.78,4.45-.326,4.613-2.838.312-4.8.172-9.668.174-14.479,0-4.516.033-9.031-.126-13.544-.115-3.26.351-8.951-1.406-11.915C75.475-.317,71.169.334,68.026.19c-4.9-.225-9.813-.21-14.719-.159" transform="translate(2.202 0.33)" fill="#89c5cc"/>
        <path id="Fill_171" data-name="Fill 171" d="M1.373,2.563C1.383,11.047.4,19.475.126,27.949c-.126,3.9-.382,8.175.6,12,.995,3.862,4.155,4.7,4.519.387.737-8.73.556-17.783,1.13-26.584.2-3.107,1.521-8.8.29-11.711-1.084-2.563-5.3-3.054-5.3.522" transform="translate(0.536 3.247)" fill="#89c5cc"/>
        <path id="Fill_175" data-name="Fill 175" d="M78.11.013C63.48,1.949,48.186,1.243,33.451,1.548c-7.069.146-14.137.155-21.207.229C9.777,1.8,3.511.864,1.377,2.251c-3.4,2.208.289,3.912,2.538,3.961,13.952.306,28.06-.336,42.009-.794,6.267-.206,12.555-.306,18.806-.839A66.285,66.285,0,0,0,76.52,2.9c.8-.221,2.53-.175,2.708-1.261.11-.672-.089-1.768-1.118-1.626" transform="translate(2.796 43.195)" fill="#89c5cc"/>
        <path id="Fill_177" data-name="Fill 177" d="M18.368.429C14.3.453,2.049-1.436.365,2.529-1.88,7.817,6.877,6.583,9.233,6.522c5.349-.137,10.7-.152,16.046-.15,5.25,0,10.5-.032,15.749-.156,1.521-.037,5.061.595,5.935-1.237a2.306,2.306,0,0,0-1.087-3.226c-2.951-1.773-10.616-.745-14.07-.9C27.333.642,22.846.429,18.368.429" transform="translate(1.703 55.111)" fill="#89c5cc"/>
        <path id="Fill_179" data-name="Fill 179" d="M10.541.264C8.218.4,3.517-.555,1.436.508-.93,1.717-.1,3.61,1.946,4.441c1.415.576,7.217.274,8.6-.393,1.436-.7,3.06-3.972,0-3.784" transform="translate(58.995 56.255)" fill="#89c5cc"/>
        <path id="Fill_181" data-name="Fill 181" d="M2.047.008C-.435.689.318,14.779.254,17.013c-.175,6.12-.863,13.817,1.17,19.71,1.3,3.757,3.787,3.248,3.363-.708-.373-3.472-1.012-6.9-1.289-10.4C2.872,17.71,2.021,9.276,2.612,1.363c.252.46,2.606,4.725,3.16,4.407C5.6,5.868,3.056-.258,2.047.008" transform="translate(92.966 6.634)" fill="#89c5cc"/>
        <path id="Fill_183" data-name="Fill 183" d="M31.422.077C26.4.151,21.377.24,16.356.379,12.364.49,6.09-.165,2.429,1.514c-4.36,2-2.291,6.455,1.8,6.549,3.622.084,7.485-.733,11.141-.859,9.873-.338,19.764-.41,29.642-.495,8.933-.077,18.246.876,27.1-.466,1.313,11.663-2.239,23.375-1.031,35.172.187,1.831.1,4.418,2.435,4.835,2.943.527,3.064-2.388,3.175-4.475.319-5.959.146-11.923.582-17.89.4-5.53,1.2-11.181.528-16.72C76.978.35,73.713.9,67.939.613,55.746.015,43.629-.1,31.422.077" transform="translate(91.508 1.377)" fill="#89c5cc"/>
        <path id="Fill_185" data-name="Fill 185" d="M9.082.145C6.522.209,2.272-.58.632,1.874c-1.706,2.553.318,4.78,2.8,5.3,2.937.62,6.766-.23,9.814-.239,3.174-.009,6.349.026,9.523.039,13.608.053,27.275.259,40.873-.3,1.9-.078,7.289.559,8.6-1.263,1.167-1.616.351-3.065-1.186-3.888-2.52-1.35-7.7-.837-10.5-.944C57.1.448,53.63.4,50.167.351,36.495.14,22.752-.194,9.082.145" transform="translate(97.016 42.722)" fill="#89c5cc"/>
        <path id="Fill_187" data-name="Fill 187" d="M19.129,0C14.037.087,8.6-.137,3.561.636-.872,1.315-1.418,5.6,3.354,6.1c4.386.461,9.7-.4,14.109-.683,1.565-.1,3.385.042,4.136-1.688A2.78,2.78,0,0,0,19.129,0" transform="translate(98.48 54.67)" fill="#89c5cc"/>
        <path id="Fill_189" data-name="Fill 189" d="M12.31.353c-2.718.068-10.658-1.1-12,2C-1.935,7.525,8.812,5.561,10.874,5.485,13.473,5.39,23.6,6.907,23.6,2.77c0-4.057-8.8-2.479-11.294-2.417" transform="translate(143.799 54.767)" fill="#89c5cc"/>
        <path id="Fill_191" data-name="Fill 191" d="M.189,3.2C.2,12.606-.39,22.1.468,31.475c.355,3.879.294,11.31,2.541,14.6,1.595,2.334,3.807,2.171,4.678-.632.582-1.874-.349-5.621-.453-7.625-.1-1.924-.217-3.847-.306-5.771-.229-4.957-.21-9.907-.142-14.867C6.844,12.923,7.868,7.295,6.9,3.2,6-.61.189-1.5.189,3.2" transform="translate(1.281 77.601)" fill="#69a1ac"/>
        <path id="Fill_193" data-name="Fill 193" d="M92.929.318c-16.313.409-32.663.044-48.961.851-8.038.4-16.045,1.272-24.042,2.144C16,3.742,12.07,4.183,8.147,4.667c-1.184.146-11.019.527-7.32,4.267,1.615,1.633,6.756-.073,8.79-.314,3.938-.465,7.884-.87,11.828-1.287C28.949,6.539,36.463,5.787,44,5.37c17.749-.983,35.572-.688,53.339-1.344,4.806-.177,9.6-.3,14.406-.115,1.262.05,10.54.521,6.512-2.905-1.9-1.621-9.086-.784-11.466-.833-4.62-.1-9.242.029-13.86.145" transform="translate(3.038 72.214)" fill="#69a1ac"/>
        <path id="Wireframy_Stuff" data-name="Wireframy Stuff" d="M.008,56.03c-.379-5.344,13.029-5.335,16.863-5.692,16.461-1.531,33.193-1.209,49.705-.978,7.985.111,15.954.355,23.933-.133s16.211-.359,24.123-1.217c-1.02-3.951-.87-8.892-1.156-12.929-.734-10.365-.537-20.766-1.011-31.141-.208-4.571,6.018-5.264,7.865-1.563,1.866,3.737.653,11.153.774,15.3.279,9.594,2.058,20.335.179,29.823-.654,3.3-3.438,5.035-5.29,3.235l-.008.012c-.7,1.027-2.866,1.025-4.464,1.023-.44,0-.837,0-1.148.02-4.377.3-8.672.8-13.011,1.45a208.9,208.9,0,0,1-25.951,2.308c-17.281.428-34.633.028-51.889,1.211A94.731,94.731,0,0,0,8.179,58.19a26.115,26.115,0,0,1-4.765.779C1.653,58.97.171,58.34.008,56.03Z" transform="translate(5.38 71.403)" fill="#69a1ac"/>
        <path id="Fill_199" data-name="Fill 199" d="M3.33.661C1.126.96-.712,2.847.272,5.239,1.511,8.251,5.2,7.074,7.641,6.883c7.75-.607,15.842.605,23.5-.309,2.091-.25,5.125-1.389,3.247-4.2C32.975.264,27.833.634,25.648.432A116.59,116.59,0,0,0,3.33.661" transform="translate(128.078 78.032)" fill="#c1dee2"/>
        <path id="Fill_201" data-name="Fill 201" d="M11.636.108C8.631.31,1.634.151.367,3.571-1.9,9.706,6.995,7.544,9.7,7.2c3.148-.405,10.568.68,12.244-2.372,3-5.458-7.675-4.9-10.311-4.715" transform="translate(132.852 91.726)" fill="#c1dee2"/>
        <path id="Fill_203" data-name="Fill 203" d="M1.07,1.325a3.941,3.941,0,0,0,0,5.4C2.818,8.472,6.628,8.109,8.925,8.237c3.2.179,12.407,1.874,14-1.9C25.07,1.247,16.736,1.353,14,1.064,10.827.731,3.7-1.3,1.07,1.325" transform="translate(135.689 103.973)" fill="#c1dee2"/>
        <path id="Fill_205" data-name="Fill 205" d="M0,4.114c0,5.473,8.548,5.473,8.548,0C8.548-1.33,0-1.413,0,4.114" transform="translate(24.437 14.045)" fill="#89c5cc"/>
        <path id="Fill_207" data-name="Fill 207" d="M0,4.7c0,6.257,9.736,6.244,9.736,0S0-1.6,0,4.7" transform="translate(40.651 13.52)" fill="#89c5cc"/>
        <path id="Fill_209" data-name="Fill 209" d="M2.12.084C-2.613,1.391,1.747,5.4,3.944,6.318,7.437,7.775,12.2,8.848,15.7,6.665c1.39-.869,2.518-2.024,1.5-3.71-1.085-1.8-2.571-1-4.224-.831A12.96,12.96,0,0,1,7.167,1.63c-1.509-.5-3.4-2-5.047-1.546" transform="translate(28.723 26.456)" fill="#89c5cc"/>
        <path id="Fill_211" data-name="Fill 211" d="M0,2.776c0,3.7,5.748,3.7,5.748,0S0-.925,0,2.776" transform="translate(116.69 15.729)" fill="#89c5cc"/>
        <path id="Fill_213" data-name="Fill 213" d="M0,3.085C0,7.2,6.386,7.2,6.386,3.085S0-1.028,0,3.085" transform="translate(129.402 15.978)" fill="#89c5cc"/>
        <path id="Fill_215" data-name="Fill 215" d="M13.646.179C10.291.612.59,1.6.047,5.73c-.837,6.379,9.793,1.216,12.219.715A35.165,35.165,0,0,1,21.2,6.1c1.694.068,3.946.342,3.769-2.238C24.678-.377,16.578-.2,13.646.179" transform="translate(115.283 27.809)" fill="#89c5cc"/>
        <path id="Fill_217" data-name="Fill 217" d="M4.406.083C1.974.732-1.206,4.935.466,7.507c2.743,4.219,3.952-2.259,5.1-2.882,2.089-1.135,3.784,3.011,5.967.836C14.978,2.03,6.574-.5,4.406.083" transform="translate(40.186 86.731)" fill="#69a1ac"/>
        <path id="Fill_221" data-name="Fill 221" d="M1.456.445c-4.612,2.7,2.977,8.5,5.607,9.22,3.971,1.093,11.965-.947,12.906-5.8C20.343,1.935,19.135.187,17,.532c-1.754.285-2.88,2.486-4.5,3.274A5.03,5.03,0,0,1,6.492,3.2C4.974,1.891,4.161-1.133,1.456.445" transform="translate(48.924 100.509)" fill="#69a1ac"/>
        <path id="Fill_223" data-name="Fill 223" d="M40.023.393c-4.12.879-8.309.289-12.449,1.115-4.222.843-6.745,2.438-10.667.831l-.553-.234C13.318.8,10.136.411,6.958,2.5c-1.881,1.233-7.589,5.5-6.9,8.1C1.548,16.24,7.972,7.391,9.61,6.529c3.124-1.645,5.265.456,8.481,1.049,3.852.71,6.951-1.325,10.58-2.136,4.244-.948,9.018-1.278,13.335-1.786,1.706-.2,8.166,1.149,8.75-.974C51.757-.964,41.642.05,40.023.393" transform="translate(13.699 140.492)" fill="#c1dee2"/>
        <path id="Fill_225" data-name="Fill 225" d="M16.26,20.2h0c-3.071,0-5.532-.1-7.744-.314A11.824,11.824,0,0,1,4.1,18.859,5.171,5.171,0,0,1,1.561,15.4a49,49,0,0,1-1.4-6.552C-.249,5.565.116,3.623,1.249,3.075a2.643,2.643,0,0,1,1.176-.221c.231,0,.469.015.66.027l.025,0c.208.013.4.026.587.026a2.315,2.315,0,0,0,.416-.032c.991-.182,2-.447,3.075-.727a36.46,36.46,0,0,1,4.265-.934C15.523.666,19.945.293,24.971.076l.062,0C25.844.039,26.764,0,27.755,0a18.916,18.916,0,0,1,5.584.678A5.841,5.841,0,0,1,37.25,3.83c1.354,3.158-.282,9.787-1.959,12.785-1.759,3.145-5.247,3.578-8.755,3.578-.657,0-1.328-.016-1.92-.029h-.038c-.626-.015-1.217-.028-1.8-.028l-.395,0-1.685.023h-.017C19.231,20.182,17.735,20.2,16.26,20.2ZM4.5,5.153h0c.077.491.129,1.418.189,2.491l0,.04c.152,2.755.36,6.528,1.185,7.459.786.887,3.568.914,5.23.931h.028c.4,0,.749.008.99.023,2.6.162,5.244.241,7.8.316l.074,0c1.007.029,2.177.064,3.311.1.59.021,1.393.124,2.17.224l.019,0a30.447,30.447,0,0,0,3.653.317,5.17,5.17,0,0,0,2.243-.377c1.007-.5,2.157-2.613,2.93-5.384.65-2.329,1.1-5.53.24-6.886-.833-1.311-2.855-1.948-6.182-1.948a60.338,60.338,0,0,0-8.53.848l-.016,0c-.966.145-1.8.27-2.4.331a39.193,39.193,0,0,0-3.952.736l-.027.006A35.043,35.043,0,0,1,6.63,5.434,7.005,7.005,0,0,1,4.5,5.153Z" transform="translate(77.55 137.016)" fill="#c1dee2"/>
        <path id="quare" d="M23.172,24.947h0a126.216,126.216,0,0,1-14.053-.718c-2.871-.32-4.632-.911-5.888-1.975C1.852,21.086,1.093,19.285.842,16.588c-.058-.626-.162-1.371-.282-2.233C-.015,10.218-.886,3.967,2.327,1.917,4.735.381,9.561.229,13.085.118,13.9.092,14.676.068,15.338.03,15.714.01,16.109,0,16.51,0A52.992,52.992,0,0,1,23.1.566c1.789.228,3.639.465,5.432.541,3.078.131,5.015.375,6.434,1.29,1.437.926,2.289,2.5,2.941,5.448A5.313,5.313,0,0,0,38.3,8.912,3.9,3.9,0,0,1,38.75,10.6a22.43,22.43,0,0,1-.691,4.41c-.152.693-.3,1.346-.394,1.907-.5,2.875-1.544,4.882-3.189,6.134-1.535,1.168-3.638,1.749-6.616,1.827C26.258,24.925,24.681,24.947,23.172,24.947Zm4.2-6.992c-1.725.314-3.569.656-5.977,1.109l-.337.064h-.005l-.579.109-.2.038c.725.051,1.345.14,1.944.226a13.66,13.66,0,0,0,1.968.194A3.608,3.608,0,0,0,27.367,17.955ZM13.4,17.622h0l-.3.1-.011,0-1.2.4-.009,0-.105.035-.089.029-.206.068-.418.138c.907.112,1.754.21,2.588.3a2.107,2.107,0,0,1-.246-1.079ZM7.924,14.5a.478.478,0,0,0-.356.108.355.355,0,0,0-.081.273.662.662,0,0,0,.086.495.24.24,0,0,0,.186.075c.261,0,.712-.28,1.339-.833a.355.355,0,0,1-.041,0H9.013a3.662,3.662,0,0,1-.5-.051l-.016,0-.01,0-.015,0-.013,0H8.455l-.019,0A3.444,3.444,0,0,0,7.924,14.5ZM23.482,6.875a.315.315,0,0,0-.249.139c-.176.138-.259.227-.248.263,0,.013.021.019.049.019a2.986,2.986,0,0,0,.619-.187l.011,0,.01,0,.042-.016c.048-.018.089-.033.119-.043A.585.585,0,0,0,23.482,6.875Zm8.4-1.462c.848,1.232,1.258,1.328,1.364,1.328a.134.134,0,0,0,.142-.14C33.415,6.28,32.922,5.589,31.882,5.414Z" transform="translate(121.937 134.058)" fill="#89c5cc"/>
      </g>
      <g id="Profile" transform="translate(167.464 257.943)" opacity="0.5">
        <path id="face" d="M22.211,38.531h0a24.07,24.07,0,0,1-11.736-3.143,21.565,21.565,0,0,1-8.4-8.171A15.8,15.8,0,0,1,0,19.161a17.618,17.618,0,0,1,2.831-9C1.7,9.932,1.085,9.52,1,8.94.769,7.356,4.475,5.007,5.4,4.511l.333-.178c3.2-1.71,6.5-3.477,10.027-4A30.08,30.08,0,0,1,20.218,0,27.961,27.961,0,0,1,31.839,2.412a18.221,18.221,0,0,1,8.635,7.761A16.052,16.052,0,0,1,42.4,16.652a18.8,18.8,0,0,1-.688,6.654,21.853,21.853,0,0,1-2.846,6.152,21.5,21.5,0,0,1-4.546,4.97A19.274,19.274,0,0,1,22.211,38.531Zm-2.4-33.905A16.7,16.7,0,0,0,7.346,10.064,13,13,0,0,0,4.194,20.627c1.038,7.778,8.93,14.35,17.234,14.35.355,0,.711-.012,1.061-.037A17.125,17.125,0,0,0,38,20.375a11.771,11.771,0,0,0-2.671-9.619C32.2,7.109,26.4,4.762,20.185,4.63,20.062,4.627,19.937,4.626,19.814,4.626Z" transform="translate(51.847 0.284)" fill="#89c5cc"/>
        <path id="Fill_231" data-name="Fill 231" d="M0,2.658C0,6.2,5.5,6.2,5.5,2.658S0-.886,0,2.658" transform="translate(65.459 14.104)" fill="#89c5cc"/>
        <path id="Fill_233" data-name="Fill 233" d="M0,2.881c0,3.842,5.963,3.842,5.963,0S0-.96,0,2.881" transform="translate(75.657 14.448)" fill="#89c5cc"/>
        <path id="Fill_235" data-name="Fill 235" d="M.05,1C-.753,3.91,8.4,5.4,8.7,2.031,8.847.42.608-1.038.05,1" transform="translate(68.725 23.932)" fill="#89c5cc"/>
        <path id="Fill_237" data-name="Fill 237" d="M1.04,6.014c10.529-1.263,21.386-.68,31.966-.377,2.648.077,5.3.151,7.944.195,1.683.028,5.319.836,6.789.048,6.017-3.227-5.786-4.787-7.458-4.936A364.534,364.534,0,0,0,2.96.178C-.161.3-.836,6.239,1.04,6.014" transform="translate(94.559 17.112)" fill="#89c5cc"/>
        <path id="Fill_241" data-name="Fill 241" d="M53.776.025c-4.055.347-7.8,2.251-11.9,2.275-3.434.019-6.816-1.007-10.27-.855-4.051.177-6.28,2.8-9.828,3.673-2.825.7-4.6-1.465-7.09-2.422-3.137-1.208-5.455-.584-8.144,1.243C4.573,5.282-.035,8.295,0,11.01c.106,8.226,9.7-3.137,11.637-3.275,2.571-.183,5.442,2.747,8.177,2.914,3.616.221,5.935-2.11,9.264-2.959,3.367-.859,7.007.193,10.383.52,3.852.372,7.222-.486,10.948-1.405a22.117,22.117,0,0,1,10.357-.1c2.476.505,8.646,3.441,9.729-.334C71.971,1.234,56.611-.216,53.776.025" transform="translate(37.78 43.589)" fill="#89c5cc"/>
        <path id="Fill_243" data-name="Fill 243" d="M41.369.011C33.061.817,24.7,1.524,16.356,1.751,12.741,1.849-1.155.3.077,4.893,1.133,8.832,20.044,6.352,23.9,6.052c4.252-.33,8.5-.792,12.729-1.327,1.5-.19,5.121.006,6.179-1.251,1.009-1.2.511-3.657-1.435-3.462" transform="translate(51.421 59.292)" fill="#89c5cc"/>
        <path id="have_a_nice_day_:_" data-name="have a nice day :)" d="M9.23,18.8a8.521,8.521,0,0,1-6.651-3.325A11.74,11.74,0,0,1,0,8.395C-.064,4.475,2.1.212,8.373,0l.09,0A1.423,1.423,0,0,1,9.635.545,1.181,1.181,0,0,0,10.406,1h.024a1.5,1.5,0,0,0,.634-.321l.09-.061a1.8,1.8,0,0,1,.873-.382h.038c2.709.174,4.443.684,5.852,2.881A7.824,7.824,0,0,1,19.083,7.05a12.093,12.093,0,0,1-.661,4.358c-1.107,3.269-3.364,5.869-5.891,6.784A9.7,9.7,0,0,1,9.23,18.8ZM11.066,4.451a1.857,1.857,0,0,0-.983.293l-.006,0a3.306,3.306,0,0,1-1.7.456c-2.19.069-3.427,1.221-3.4,3.161A6.154,6.154,0,0,0,6.409,12a4.435,4.435,0,0,0,3.306,1.8,3.935,3.935,0,0,0,2.8-1.322,7.842,7.842,0,0,0,1.742-3.41c.223-.908.467-2.593-.405-3.668-.5-.621-.713-.638-1.092-.669h-.007a3.417,3.417,0,0,1-.69-.115A3.837,3.837,0,0,0,11.066,4.451Z" transform="translate(28.855 74.994)" fill="#89c5cc"/>
        <path id="espero" d="M7.729,17.015h0l-.17,0A7.328,7.328,0,0,1,2.1,14.449,8.914,8.914,0,0,1,.067,7.607C.605,3.224,3.34.83,8.673.075A7.568,7.568,0,0,1,9.715,0a5.529,5.529,0,0,1,4.169,1.772,9.011,9.011,0,0,1,1.977,6.736,10.27,10.27,0,0,1-2.276,5.849A7.449,7.449,0,0,1,7.729,17.015ZM6.531,6.1h0l.01,0a2.839,2.839,0,0,0-1,3.262,2.65,2.65,0,0,0,2.434,2.1,2.638,2.638,0,0,0,.936-.182,4.094,4.094,0,0,0,1.975-2.695,1.849,1.849,0,0,0-.319-1.711c.034.035.045.063.037.083s-.067.043-.164.043A12.732,12.732,0,0,1,8.2,6.555c-.671-.172-1.283-.343-1.544-.416L6.531,6.1Z" transform="translate(65.13 74.876)" fill="#89c5cc"/>
        <path id="hola" d="M6.95,20.118h0a6.591,6.591,0,0,1-4.858-1.981A7.683,7.683,0,0,1,.047,13.585,8.165,8.165,0,0,1,1.308,8.241,7.994,7.994,0,0,1,6.483,4.874,2.5,2.5,0,0,1,5.468,1.507,2.5,2.5,0,0,1,7.55,0c2.962,0,6.466,6.994,6.77,8.769a13.28,13.28,0,0,1-.451,6.83,6.522,6.522,0,0,1-4.933,4.295A9.348,9.348,0,0,1,6.95,20.118ZM9.125,10.3h0c-3.113.274-3.394,1.553-3.371,2.089a1.909,1.909,0,0,0,1.783,1.723,1.251,1.251,0,0,0,.935-.42c.385-.415.81-1.341.653-3.393Z" transform="translate(113.767 70.885)" fill="#89c5cc"/>
      </g>
      <path id="Fill_251" data-name="Fill 251" d="M10.021.286C7.024.819-.061,4.129,0,7.684c.1,5.549,6.118-.512,7.457-1.327,7.2-4.379,16.516,1.3,24.008,2.5,3.435.553,10.155,1.576,13.189-.726,5.4-4.094-7.083-3.069-8.673-3.234C27.344,4.008,18.75-1.273,10.021.286" transform="translate(300.464 337.943)" fill="#c1dee2" opacity="0.5"/>
      <g id="Checkmark_" data-name="Checkmark!" transform="translate(311.464 279.943)" opacity="0.5">
        <path id="Fill_292" data-name="Fill 292" d="M28.008,46.27h0a20.607,20.607,0,0,1-5.823-.857,24.135,24.135,0,0,1-5.727-2.567A28.2,28.2,0,0,1,6.5,32.466,24.148,24.148,0,0,1,3.4,18.5a3.322,3.322,0,0,1-1.705.62,1.406,1.406,0,0,1-1.265-.755,5.5,5.5,0,0,1,.142-4.548A34.525,34.525,0,0,1,4.31,8.667c.242-.294.491-.6.73-.891a20.79,20.79,0,0,1,7.1-5.842A20.633,20.633,0,0,1,21.2,0l.366,0A38.159,38.159,0,0,1,36.072,2.831a26.646,26.646,0,0,1,6.384,3.75,19.278,19.278,0,0,1,7.168,12.464,23.392,23.392,0,0,1-.09,7.408,24.874,24.874,0,0,1-6.546,13.134A20.686,20.686,0,0,1,28.008,46.27ZM21.34,5.711c-4.543,0-7.651,1.388-9.782,4.367A18.186,18.186,0,0,0,8.474,22.771c1.107,8.282,9.489,18.3,18.636,18.809.268.015.539.022.806.022,9.7,0,17.019-9.857,17.085-18.67C45.094,10.667,32.942,7.069,25.69,6.016A36.427,36.427,0,0,0,21.34,5.711Z" transform="translate(0.01 3.36)" fill="#89c5cc"/>
        <path id="Fill_294" data-name="Fill 294" d="M31.072.669A61.153,61.153,0,0,0,19.313,12.452c-3.263,4.212-5.42,9.471-9.34,13.143-1.979-2.156-4.3-7.979-8.247-5.669C-1.551,21.843.559,25.14,2.155,27.3c4.121,5.589,8.7,7.839,13.982,2.316,4.8-5.015,7.526-11.705,12.014-17.009,1.969-2.327,5.01-4.637,6.578-7.206,1.421-2.329-.336-7.177-3.656-4.737" transform="translate(10.754 0.065)" fill="#89c5cc"/>
      </g>
      <g id="Whiteboard_Stuff" data-name="Whiteboard Stuff" transform="translate(347.464 55.943)" opacity="0.5">
        <path id="Wireframy_Stuff-2" data-name="Wireframy Stuff" d="M2.614,48.086c-2.2-1-2.149-2.1-1.25-2.958-.545-1.2-.455-3.156-.572-4.1A97,97,0,0,1,0,29.224c-.014-7.786,0-15.873,2.155-23.41A1.913,1.913,0,0,1,.777,4.077C.786.133,12.755.23,18.9.329c1.282.021,2.31.041,2.923.025C26.178.24,30.538.225,34.9.248c.952,0,2.017-.06,3.118-.124a24.36,24.36,0,0,1,6.527.184c5.585,1.3,5.232,10.871,5.346,15.5a243.016,243.016,0,0,1-.589,25.32c-.233,2.86-2.314,6.486-4.687,2.543-1.324-2.2-.734-7.335-.736-9.764-.006-8.635,1.347-17.533.052-26.124-.424-2.816-.33-3.007-3.2-2.947-2.272.048-4.546.123-6.818.17-4.629.1-9.259.161-13.886.33-1.757.065-8.071,1.168-13,1.164,0,.04.007.079.008.119.067,3.33-1.565,7.371-1.787,10.874-.535,8.425.1,17.047-.686,25.43-.024.254-.037.525-.052.8.148-.023.293-.039.432-.047,3.67-.233,7.389-.137,11.066-.222,2.344-.054,4.719-.052,7.1-.049a134.215,134.215,0,0,0,15.741-.595c1.521-.2,2.054,1.755,1.371,2.767-.766,1.136-3.218,1.078-4.352,1.246a98.154,98.154,0,0,1-10.043.813c-3.522.156-7.046.273-10.57.371-2.045.057-5.761.648-8.84.648A9.834,9.834,0,0,1,2.614,48.086Z" transform="translate(39.311 0.302)" fill="#89c5cc"/>
        <path id="Wireframy_Stuff-3" data-name="Wireframy Stuff" d="M3.025,46.218a1.476,1.476,0,0,1,.318-.925A6.224,6.224,0,0,1,1.924,42.78C.736,38.936.624,34.788.535,30.8.347,22.283.441,13.749.39,5.227-.383,4.19.076,3,1.04,2.175,3.645-.061,11.151.507,14.458.331,19.217.08,23.979.022,28.743,0c5.045-.026,10.1.065,15.141.221,1.871.057,14.88.384,9.066,3.538a6.12,6.12,0,0,1-1.117.457,18.464,18.464,0,0,1,.232,3.625c-.247,4.535-.353,9.079-.554,13.616-.225,5.065-.438,10.129-.613,15.2-.093,2.678.824,8.907-1.3,10.84a2.8,2.8,0,0,1-1.785.9,1.592,1.592,0,0,1-1.278-.743c-3.643,1.058-10.708.866-15.19.674-1.76-.075-3.121-.15-3.722-.149-2.011,0-8.711.682-14.613.682C7.7,48.862,3.041,48.311,3.025,46.218ZM23.192,4.371A141.235,141.235,0,0,0,7.414,5.23c-.286.038-.63.112-1.01.2.795,3.321-.169,8.663-.173,11.74-.01,8.623.308,17.2.5,25.775q.009.422-.019.784c4.121-.88,10.777-.715,15.09-.55,1.745.067,3.107.133,3.761.131,4.229-.016,8.46.042,12.685.212.479.019,1.211,0,2.069-.024a39.081,39.081,0,0,1,5.014.1c-.023-.23-.038-.441-.047-.622-.23-4.561.021-9.17.168-13.731.148-4.6.374-9.191.551-13.787.092-2.364-.506-7.3.141-10.7-3.072-.058-6.293-.429-8.366-.429-2.6,0-5.2-.016-7.8-.016C27.719,4.314,25.456,4.326,23.192,4.371Z" transform="translate(106.777 1.166)" fill="#89c5cc"/>
        <path id="Fill_135" data-name="Fill 135" d="M1.795.484C-1.333,2.311.354,9.619,1.438,12.147c1.781,4.156,5.4,7.408,9.295,9.566,7.882,4.36,19.244,3.2,25.205,10.762.062.078,2.122,2.118,2.591-.524.385-2.168-3.462-5.479-4.952-6.566C29.338,22.295,23.9,21.3,19,19.755,13.77,18.108,8.031,15.073,5.839,9.683c-.776-1.909.7-11.986-4.044-9.2" transform="translate(59.489 47.639)" fill="#c1dee2"/>
        <path id="Fill_137" data-name="Fill 137" d="M34.65.1c-2.866.79-.971,4.734-.975,6.708a11.7,11.7,0,0,1-2.311,7.007c-3.85,4.986-11.389,5.733-17.041,7.162C10.219,22.017.4,24.244.015,29.794c-.429,6.2,8.24-1.345,8.972-1.654,8.1-2.972,18.585-3.546,24.838-10.088a16.078,16.078,0,0,0,4.35-10.025c.137-2.094.16-8.933-3.525-7.927" transform="translate(98.129 51.536)" fill="#c1dee2"/>
        <path id="Fill_139" data-name="Fill 139" d="M23.6,41.39h0a26.164,26.164,0,0,1-8.272-1.41,26.966,26.966,0,0,1-7.587-3.992A20.684,20.684,0,0,1,2.186,29.77,16.4,16.4,0,0,1,0,21.68a16.693,16.693,0,0,1,1.831-7.755A20.623,20.623,0,0,1,6.67,7.851,35.407,35.407,0,0,1,20.833.665,19.9,19.9,0,0,1,25.9,0,19.068,19.068,0,0,1,38.833,5.091,20.643,20.643,0,0,1,45.279,17.9a20.511,20.511,0,0,1-4.695,15.863,21.153,21.153,0,0,1-6.976,5.36,22.981,22.981,0,0,1-9.021,2.241C24.264,41.383,23.934,41.39,23.6,41.39ZM7.241,14.449c-2.43,4.2-2.564,8.409-.387,12.185,3.063,5.313,10.315,9.024,17.636,9.024a16.79,16.79,0,0,0,7.074-1.442c7.327-3.378,9.286-11.315,8-17.259-1.115-5.172-5.095-10.72-12.922-10.778a2.97,2.97,0,0,1,.675,2.072,1.456,1.456,0,0,1-.748.967,1.717,1.717,0,0,1-.862.271c-.714,0-1.185-.661-1.641-1.3a2.951,2.951,0,0,0-1.356-1.275,1.954,1.954,0,0,0-.529-.068c-1.357,0-3.174,1.128-4.459,2.074a17.763,17.763,0,0,0-2,2.047c-1.851,2.062-4.387,4.886-6.423,4.886A2.38,2.38,0,0,1,7.241,14.449Z" transform="translate(73.561 84.935)" fill="#89c5cc"/>
        <path id="Fill_141" data-name="Fill 141" d="M0,1.994c0,2.632,4.157,2.632,4.157,0C4.157-.609,0-.72,0,1.994" transform="translate(89.289 100.783)" fill="#89c5cc"/>
        <path id="Fill_143" data-name="Fill 143" d="M0,2.442c0,3.224,5.094,3.224,5.094,0C5.094-.746,0-.882,0,2.442" transform="translate(96.603 99.84)" fill="#89c5cc"/>
        <path id="Fill_145" data-name="Fill 145" d="M.882.235C-3.284,2.685,8.63,7.554,9.1,2.579,9.3.432,7.224,1.011,5.839.853,4.513.7,2.14-.5.882.235" transform="translate(90.487 109.561)" fill="#89c5cc"/>
        <path id="Fill_147" data-name="Fill 147" d="M0,2.1C.183,8.357.1,14.612,1.283,20.784c.226,1.172.382,5.424,1.309,6.295C4.87,29.221,4.908,25.115,5,23.542,5.313,17.906,4.721,12.1,4.59,6.448c-.028-1.215.294-3.733-.28-4.91C3.4-.329-.087-.883,0,2.1" transform="translate(89.56 125.083)" fill="#c1dee2"/>
        <path id="Fill_149" data-name="Fill 149" d="M60.917.694c-9.133,10.251-21.71,9.5-34.38,10.393-6.694.474-13.463,1.448-18.85,5.778a22.881,22.881,0,0,0-6.117,7.413c-.634,1.257-3.644,8.51.876,6.789,1.6-.61,3.181-5.407,4.218-6.826A20.144,20.144,0,0,1,14.2,17.86c5.847-2.8,12.829-2.749,19.169-3.1,6.627-.371,13.741-.717,19.832-3.6a30.031,30.031,0,0,0,7.86-5.225c.824-.779,2.591-2.1,2.723-3.293.151-1.361-1.158-3.853-2.863-1.944" transform="translate(24.189 121.412)" fill="#c1dee2"/>
        <path id="Fill_151" data-name="Fill 151" d="M32.074.631c-8.579.287-17.147.634-25.715,1.176C4.6,1.918-1.25,1.564.241,5.161c1.195,2.884,8.334.976,10.7.836,8.927-.53,17.891-.714,26.8-1.517,2-.18,11.047-.108,7.312-3.655C43.27-.863,34.529.547,32.074.631" transform="translate(6.926 152.938)" fill="#89c5cc"/>
        <path id="Fill_153" data-name="Fill 153" d="M1.719.818C-.985,4.37.258,13,.462,17.271c.2,4.138-.606,11.7,4.8,12.344-1.715-.225,1.3.1,1.793.131,1.1.059,2.2.078,3.3.09,2.537.028,5.075-.006,7.611-.057,5.745-.115,11.505-.282,17.243-.6,2.412-.134,15.5-.022,16.014-2.528.662-3.2-11.883-1.39-14.129-1.288-5.469.251-10.947.3-16.421.375-2.713.036-5.429.062-8.142.009-1.12-.022-5.557.438-6.238-.309-.581-.636-.127-6.486-.14-7.381-.04-2.917-.037-5.841.067-8.757.07-1.963,1.131-5.7.266-7.542A2.987,2.987,0,0,0,1.719.818" transform="translate(0 156.889)" fill="#89c5cc"/>
        <path id="Fill_155" data-name="Fill 155" d="M0,3.392c.157,6.5.205,13.126,1.74,19.48.511,2.115,1.226,6.476,3.351,7.57,2.23,1.149,4.155-.491,4.3-2.7.184-2.778-1.3-6.424-1.609-9.274-.356-3.325-.564-6.654-.685-10C7.006,5.96,7.77,2.192,5.374.571A3.454,3.454,0,0,0,0,3.392" transform="translate(45.894 154.482)" fill="#89c5cc"/>
        <path id="Wireframy_Stuff-4" data-name="Wireframy Stuff" d="M3.786,31.676c-2.044-.085-4.227-.753-3.709-3.4.459-2.344,2.818-2.362,4.74-2.558a165.362,165.362,0,0,1,17.411-.778c12.231.042,24.452-.022,36.683-.086a2.649,2.649,0,0,1,1.365.525c-.638-.776-.331-1.925-.45-3.047-.321-3.026-.529-6-1.1-9.025-.459-2.42-.8-6.53-3.047-8.053-1.909-1.3-5.632-1.247-8.564-1.2-.83.014-1.6.027-2.24.011A203.553,203.553,0,0,0,21.279,5.139c-3.568.325-7.181.572-10.71,1.212-1.965.357-7.729,3.242-9.3,1.467C-2.508,3.544,14.1,1.79,16.351,1.557,24.365.731,32.389.11,40.448.033,45.889-.009,55.2-.473,59.2,3.992c2.4,2.681,3.246,7.1,4.184,10.443.72,2.569,2.673,7.2,1.285,9.856-.628,1.2-1.639,2.225-3.173,1.8a2.885,2.885,0,0,1-.859-.376,2.227,2.227,0,0,1,.466,2.428c-.917,2.129-4.293,1.67-6.126,1.823-6.119.51-12.266.851-18.407.9-2.922.025-5.844,0-8.766-.022-3.011-.025-6.023-.05-9.033-.02-4.494.044-9.157.876-13.647.876Q4.454,31.7,3.786,31.676Z" transform="translate(65.092 152.536)" fill="#89c5cc"/>
        <path id="Line" d="M59.849,31.578h0c-1.48,0-3-2.517-4.011-4.182a14.644,14.644,0,0,0-.855-1.322,13.921,13.921,0,0,0-6.845-5.053c-5.21-1.777-10.962-2.448-16.524-3.1-1.894-.221-3.853-.45-5.729-.717-.968-.138-1.955-.263-3-.4-5.029-.636-10.729-1.357-15.027-3.789C5.975,11.956.03,6.509,0,2.875A2.634,2.634,0,0,1,1.421.467,2.976,2.976,0,0,1,2.9,0C4.335,0,5.135,1.565,5.84,2.945c.225.441.438.857.66,1.2a11.742,11.742,0,0,0,7.205,5.208A108.417,108.417,0,0,0,27.651,12.1c1.2.182,2.443.37,3.658.565.995.159,2.028.315,3.027.466,5.509.831,11.2,1.689,16.183,3.888a29.442,29.442,0,0,1,6.22,5.138c1.722,1.772,4.629,5.089,4.757,7.391a1.861,1.861,0,0,1-.96,1.841A1.355,1.355,0,0,1,59.849,31.578Z" transform="translate(111.051 117.42)" fill="#c1dee2"/>
        <path id="Wireframy_Stuff-5" data-name="Wireframy Stuff" d="M6.629,32.63c-2.092-.2-4.339-.941-3.82-3.578C1.354,26.26.684,20.9.554,19.841A97.787,97.787,0,0,1,.03,6.181a2.992,2.992,0,0,1,4.8-2.308c2.5-1.048,6.729-1.2,9-1.434,3.734-.377,7.5-.518,11.246-.742C33.819,1.175,42.554.233,51.314.039c2.621-.055,6.132-.292,8.229,1.643,2.387,2.2,2.862,7.669,3.577,10.614a71.837,71.837,0,0,1,2.029,9.733,18.527,18.527,0,0,1,.189,3.276,2.051,2.051,0,0,1,1.633,2.362c-.2,2.146-3.176,2.438-4.916,2.777-5.782,1.129-11.964.872-17.826,1.038C34.723,31.75,24.707,33,14.992,33,12.173,33,9.378,32.895,6.629,32.63Zm1.22-6.1c.269,0,.534,0,.788,0q9.254-.162,18.5-.532c6.287-.241,12.574-.51,18.866-.582,2.192-.025,4.412.043,6.639.112,2.854.088,5.719.176,8.549.067-1.083-2.835-.919-7.3-1.5-10.233-.573-2.915-.791-6.371-1.963-9.109-1.319-3.08-2.466-2.367-5.9-2.134-3.532.239-7.06.577-10.588.867-7.756.638-15.519,1.042-23.28,1.582-4.026.281-7.878,1.429-11.816,1.88-.059,1.406-.257,2.824-.235,3.849.067,3.025.365,6.028.627,9.041.106,1.225.612,3.339.688,5.193H7.85Z" transform="translate(135.777 150.643)" fill="#89c5cc"/>
      </g>
    </g>
    <path id="Path_9" data-name="Path 9" d="M306.077,347.716c-.919,1.424-1.883,2.792-2.921,4.134-.331-.34-.625-.68-.891-.992-4.207-4.924-4.253-11.3-4.317-14.9-.45-23.863-3.684-28.575,1.084-34.252a14.9,14.9,0,0,1,3.7-3.2c-4.7,5.658-1.5,10.416-1.047,34.206.064,3.6.119,9.975,4.317,14.907A.329.329,0,0,1,306.077,347.716Z" transform="translate(407.967 38.647)" fill="#1820b8" opacity="0.41"/>
    <path id="Path_11" data-name="Path 11" d="M198.677,282.581c23.017,6.3,28.455,4.54,32.557,10.71a14.056,14.056,0,0,1,2.4,8.974,13.349,13.349,0,0,1-3.743,7.815c-7.885,7.633-29.582-1.7-42.008-11.918-2.709-2.227-9.978-8.2-8.514-12.443.6-1.738,2.463-2.6,3.8-3.2C189.075,279.875,195.206,281.631,198.677,282.581Z" transform="translate(407.967 38.647)" fill="#1f28cf"/>
    <rect id="Rectangle_39" data-name="Rectangle 39" width="4.899" height="32.148" transform="translate(672.81 165.573)" fill="#1f28cf"/>
    <path id="Path_12" data-name="Path 12" d="M284.209,177.775H250.376a4.517,4.517,0,0,1-4.517-4.517V161.166a4.517,4.517,0,0,1,4.517-4.517h33.833a4.517,4.517,0,0,1,4.518,4.517v12.092A4.517,4.517,0,0,1,284.209,177.775Z" transform="translate(407.967 38.647)" fill="#1b24bf"/>
    <path id="Path_13" data-name="Path 13" d="M343.989,248.042A35.364,35.364,0,0,1,308.626,283.4H225.959A35.467,35.467,0,0,1,190.6,248.042V229.671a63.1,63.1,0,0,1,62.918-62.918H281.07a63.1,63.1,0,0,1,62.919,62.918Z" transform="translate(407.967 38.647)" fill="#1f28cf"/>
    <path id="Path_14" data-name="Path 14" d="M319.862,244.693h0a14.8,14.8,0,0,1-6.544,1.512H221.266a14.793,14.793,0,0,1-6.543-1.512h0a12.105,12.105,0,0,1-7.016-12.407l.051-.367c2.358-17.1,17.846-30.245,36.831-31.232,8.033-.418,16.463-.634,25.256-.583q10.334.06,19.957.572c19.058.982,34.657,14.077,37.025,31.24l.051.37A12.106,12.106,0,0,1,319.862,244.693Z" transform="translate(407.967 38.647)" fill="url(#linear-gradient)"/>
    <g id="Group_9" data-name="Group 9" transform="translate(407.967 38.647)">
      <circle id="Ellipse_1" data-name="Ellipse 1" cx="17.357" cy="17.357" r="17.357" transform="translate(225.674 207.722)" fill="url(#radial-gradient)"/>
      <g id="Group_2" data-name="Group 2">
        <circle id="Ellipse_2-2" data-name="Ellipse 2" cx="12.459" cy="12.459" r="12.459" transform="translate(230.572 212.62)" fill="#eefdff"/>
      </g>
      <g id="Group_3" data-name="Group 3">
        <circle id="Ellipse_3-2" data-name="Ellipse 3" cx="10.464" cy="10.464" r="10.464" transform="translate(232.568 214.615)" fill="url(#linear-gradient-2)"/>
      </g>
      <g id="Group_4" data-name="Group 4">
        <circle id="Ellipse_4-2" data-name="Ellipse 4" cx="3.876" cy="3.876" r="3.876" transform="translate(241.983 218.491)" fill="#eefdff"/>
      </g>
      <g id="Group_5" data-name="Group 5">
        <circle id="Ellipse_5" data-name="Ellipse 5" cx="1.547" cy="1.547" r="1.547" transform="translate(239.938 231.557)" fill="#eefdff"/>
      </g>
      <g id="Group_6" data-name="Group 6">
        <circle id="Ellipse_6" data-name="Ellipse 6" cx="0.773" cy="0.773" r="0.773" transform="translate(236.103 230.01)" fill="#eefdff"/>
      </g>
    </g>
    <g id="Group_10" data-name="Group 10" transform="translate(407.967 38.647)">
      <circle id="Ellipse_7" data-name="Ellipse 7" cx="17.357" cy="17.357" r="17.357" transform="translate(272.567 207.722)" fill="url(#radial-gradient)"/>
      <g id="Group_8" data-name="Group 8">
        <circle id="Ellipse_8" data-name="Ellipse 8" cx="12.459" cy="12.459" r="12.459" transform="translate(277.465 212.62)" fill="#eefdff"/>
      </g>
      <g id="Group_9-2" data-name="Group 9">
        <circle id="Ellipse_9" data-name="Ellipse 9" cx="10.465" cy="10.465" r="10.465" transform="translate(279.459 214.614)" fill="url(#linear-gradient-2)"/>
      </g>
      <g id="Group_10-2" data-name="Group 10">
        <circle id="Ellipse_10" data-name="Ellipse 10" cx="3.876" cy="3.876" r="3.876" transform="translate(288.875 218.491)" fill="#eefdff"/>
      </g>
      <g id="Group_11" data-name="Group 11">
        <circle id="Ellipse_11" data-name="Ellipse 11" cx="1.547" cy="1.547" r="1.547" transform="translate(286.83 231.557)" fill="#eefdff"/>
      </g>
      <g id="Group_12" data-name="Group 12">
        <circle id="Ellipse_12" data-name="Ellipse 12" cx="0.773" cy="0.773" r="0.773" transform="translate(282.995 230.01)" fill="#eefdff"/>
      </g>
    </g>
    <circle id="Ellipse_5-2" data-name="Ellipse 5" cx="6.277" cy="6.277" r="6.277" transform="translate(668.981 157.153)" fill="#1f28cf"/>
    <circle id="Ellipse_6-2" data-name="Ellipse 6" cx="1.914" cy="1.914" r="1.914" transform="translate(675.795 159.066)" fill="#fff"/>
    <path id="Path_15" data-name="Path 15" d="M321.337,186.878c.083,2.93-2.309,6.435-5.05,6.734-2.568.281-4.619-2.343-6.734-5.049-2.084-2.667-6.644-9.519-4.828-11.457C307.119,174.551,321.141,179.965,321.337,186.878Z" transform="translate(407.967 38.647)" fill="#fff"/>
    <circle id="Ellipse_7-2" data-name="Ellipse 7" cx="2.182" cy="2.182" r="2.182" transform="translate(703.66 209.992)" fill="#fff"/>
    <path id="Path_16" data-name="Path 16" d="M321.026,227.526c-.7.494-5.58-9.446-18.677-18.064-4.6-3.029-9.149-5.188-8.879-5.817s5.393.548,9.491,2.449C316.02,212.152,321.858,226.939,321.026,227.526Z" transform="translate(407.967 38.647)" fill="#fff"/>
    <path id="Path_17" data-name="Path 17" d="M287.486,162.9c-.156.022-.256-.9-1.02-2.313a12.419,12.419,0,0,0-.766-1.225c-1.315-1.81-5.772-1.77-6.123-1.767-6.943.061-11.406-.38-11.4-.338s3.257-.031,5.643-.08c6.731-.137,10.741-.5,12.46,1.3a5.655,5.655,0,0,1,1.071,1.722A3.611,3.611,0,0,1,287.486,162.9Z" transform="translate(407.967 37.704)" fill="#fff"/>
    <path id="Path_18" data-name="Path 18" d="M286.042,253.654a3.542,3.542,0,0,1-3.218,3.1l-22.994,2.217a3.542,3.542,0,0,1-3.752-2.431,15.536,15.536,0,0,1-.494-2.2.767.767,0,0,1,.685-.878l29.01-2.8a.757.757,0,0,1,.828.721A15.458,15.458,0,0,1,286.042,253.654Z" transform="translate(407.967 38.647)" fill="#eefdff"/>
    <path id="Path_19" data-name="Path 19" d="M286.043,253.655a15.354,15.354,0,0,1-29.87,3.169,3.55,3.55,0,0,0,3.656,2.149l23-2.214A3.547,3.547,0,0,0,286.043,253.655Z" transform="translate(407.967 38.647)" fill="#131ba8"/>
    <path id="Path_20" data-name="Path 20" d="M322.271,305.3c0,.211,0,.413-.009.606a14.218,14.218,0,0,1-.744,4.032c-6.329,19.335-10.122,29.53-15.44,37.778-.919,1.424-1.883,2.792-2.921,4.134-1.359,1.791-2.848,3.536-4.5,5.336-3.674,4-9.231,5.806-11.022,6.43-6.549,2.315-12.336,1.893-16.184,1.93h-.671c-3.857-.037-9.636.386-16.185-1.93-1.791-.624-7.357-2.434-11.022-6.43-10.1-10.994-13.989-20.134-22.862-47.248a14.189,14.189,0,0,1-.734-3.784,14.7,14.7,0,0,1-.009-1.571,16.444,16.444,0,0,1,3.839-9.322,21.27,21.27,0,0,1,16.552-7.734l30.761-.129,30.2-.119A21.8,21.8,0,0,1,318.3,295.03a16.873,16.873,0,0,1,3.747,7.8c.064.386.12.78.156,1.166C322.243,304.426,322.271,304.857,322.271,305.3Z" transform="translate(407.967 38.647)" fill="#1f28cf"/>
    <path id="Path_21" data-name="Path 21" d="M271.113,287.4l-30.761.129a21.275,21.275,0,0,0-16.552,7.733,16.458,16.458,0,0,0-3.84,9.323,16.3,16.3,0,0,1,3.959-9.553A21.781,21.781,0,0,1,240.9,287.28Z" transform="translate(407.967 38.647)" fill="url(#linear-gradient-4)"/>
    <path id="Path_22" data-name="Path 22" d="M301.688,332.72c-.449-23.861-3.678-28.579,1.084-34.256a14.064,14.064,0,0,1,7.933-4.831,13.345,13.345,0,0,1,8.554,1.386c9.549,5.409,6.715,28.86.426,43.663-1.371,3.229-5.05,11.887-9.534,11.681-1.837-.085-3.191-1.629-4.143-2.742C301.8,342.7,301.755,336.317,301.688,332.72Z" transform="translate(407.967 38.647)" fill="#1f28cf"/>
    <path id="Path_23" data-name="Path 23" d="M319.542,312.85a39.513,39.513,0,0,0-1.578-8.221c-1.258-4.934-2.836-7.339-1.811-8.291.667-.62,1.981-.2,2.278-.106,4.51,1.438,5.906,9.9,5.713,15.2-.119,3.242-.91,6.867-2.1,7.027a1.345,1.345,0,0,1-.986-.294C319.734,316.988,319.645,314.8,319.542,312.85Z" transform="translate(407.967 38.647)" fill="#fff"/>
    <circle id="Ellipse_8-2" data-name="Ellipse 8" cx="0.936" cy="0.936" r="0.936" transform="translate(728.733 359.609)" fill="#fff"/>
    <ellipse id="Ellipse_9-2" data-name="Ellipse 9" cx="49.07" cy="20.088" rx="49.07" ry="20.088" transform="translate(628.639 407.115)" fill="url(#radial-gradient-3)"/>
    <path id="Path_24" data-name="Path 24" d="M133.55,214.21H66.49a47.6,47.6,0,0,1-47.457-47.457h0A47.6,47.6,0,0,1,66.49,119.3h67.06a47.6,47.6,0,0,1,47.457,47.457h0A47.6,47.6,0,0,1,133.55,214.21Z" transform="translate(407.967 38.647)" fill="#e9e9e9"/>
    <path id="Union_1" data-name="Union 1" d="M-14605.532,3273.5l-1.467-31.941q-.048-1.012,4.817-1.235t4.912.788l.521,11.324,6.745-.312-.517-11.225q-.034-.671,2.364-1.074,1.248-.154,2.453-.209l2.459-.019c1.617.121,2.435.4,2.456.854l1.463,31.842q.04.82-4.828,1.041t-4.9-.594l-.506-11.078-6.745.308.509,11.082q.04.819-4.827,1.041-1.05.049-1.876.049Q-14605.5,3274.143-14605.532,3273.5Zm33.055-3.475q-3.425-3.1-3.691-8.857a13.366,13.366,0,0,1,2.731-9.417,10.247,10.247,0,0,1,7.809-3.882q4.816-.225,7.559,2.115a7.888,7.888,0,0,1,2.9,5.851q.357,7.8-8.6,8.215l-3.321.154a2.259,2.259,0,0,0,.888,1.961,4.071,4.071,0,0,0,2.36.447,13.955,13.955,0,0,0,6.335-1.836c.033-.033.187.187.465.656a7.588,7.588,0,0,1,1.316,3.439,1.842,1.842,0,0,1-.828,1.9,15.286,15.286,0,0,1-7.725,2.141c-.21.01-.419.015-.625.015A10.9,10.9,0,0,1-14572.478,3270.025Zm7.186-14.836a2.331,2.331,0,0,0-1.54.623,2,2,0,0,0-.575,1.646l.069,1.492,2.6-.121a1.425,1.425,0,0,0,1.514-1.708q-.083-1.934-1.9-1.936C-14565.177,3255.185-14565.233,3255.187-14565.292,3255.189Zm13.979,16.3-1.511-32.806q-.034-.726,4.641-.938,4.1-.044,4.117.293l1.518,33q.016.429-4.894.656-1.081.037-1.859.037C-14550.637,3271.734-14551.306,3271.652-14551.313,3271.491Zm13.1-.6-1.511-32.806q-.032-.72,4.642-.935c2.73-.029,4.105.07,4.116.293l1.518,33c.012.29-1.616.51-4.894.66q-1.077.037-1.854.037Q-14538.205,3271.132-14538.212,3270.886Zm15.081-3.2q-3.161-3.184-3.431-9.062t2.588-9.337a10.41,10.41,0,0,1,7.962-3.7,10.349,10.349,0,0,1,8.245,2.951q3.139,3.189,3.412,9.066t-2.565,9.337a10.331,10.331,0,0,1-7.94,3.7q-.353.016-.7.016A10.208,10.208,0,0,1-14523.131,3267.683Zm7.516-14.055q-2.728.126-2.519,4.557t2.922,4.307q2.722-.121,2.518-4.557-.2-4.309-2.772-4.311C-14515.516,3253.624-14515.565,3253.625-14515.615,3253.628Zm15.224,15.716-.326-7.083c-.007-.224,1.471-.407,4.443-.542s4.461-.11,4.469.084l.319,6.936q.022.484-4.437.689-1.838.084-2.921.084Q-14500.382,3269.511-14500.392,3269.343Zm.605-9.975-2.057-23.7q-.016-.385,4.392-.59c2.937-.132,4.414-.088,4.421.136l.132,23.8q.012.286-3.431.447-1.364.061-2.189.061Q-14499.78,3259.514-14499.786,3259.368Z" transform="translate(15057.23 -3048.734)" fill="#c6c6ce"/>
    <circle id="Ellipse_10-2" data-name="Ellipse 10" cx="1.033" cy="1.033" r="1.033" transform="translate(562.923 213.322)" fill="#fff"/>
    <path id="Path_31" data-name="Path 31" d="M143.49,168.176a8.847,8.847,0,0,0-2.094-5.909,6.776,6.776,0,0,0-5.029-2.406c-.2.023-.87.139-.914.42-.091.582,2.654.987,4.708,2.526A9.483,9.483,0,0,1,143.49,168.176Z" transform="translate(407.967 38.647)" fill="#fff"/>
    <path id="Path_32" data-name="Path 32" d="M116.769,150.365c1.055-.01,1.457,19.277,1.15,22.767S116.344,150.369,116.769,150.365Z" transform="translate(407.967 38.647)" fill="#fff"/>
    <path id="Path_33" data-name="Path 33" d="M76.594,181.735a8.493,8.493,0,0,0,5.286,2.753c.046-.107-3.376-.565-5.177-3.313-.847-1.292-1.686-3.626-2.244-3.628a.089.089,0,0,0-.055.016C74.118,177.771,75.211,180.2,76.594,181.735Z" transform="translate(407.967 38.647)" fill="#fff"/>
    <path id="Path_34" data-name="Path 34" d="M68.688,181.248c-.688.946-.781-23.4-1.222-25.774v-.156c-.009-.156-.018-.468-.027-1.093a1.664,1.664,0,0,0-.24-.715c-.9-.816-4.866-.4-3.177-.625a11.147,11.147,0,0,1,3.655.109c.191.069.2.442.249.58C68.789,158.4,69.606,180,68.688,181.248Z" transform="translate(407.967 38.647)" fill="#fff"/>
  </g>
</svg>
